# xmcd
#
# Track frame offsets: 
#        183
#        15773
#        37613
#        52085
#        72470
#        81170
#        100993
#        115648
#        133840
#        153120
#        179448
#        190185
#        211138
#        226648
#        256388
#
# Disc length: 3766 seconds
#
# Revision: 6
# Processed by: cddbd v1.5.2PL0 Copyright (c) Steve Scherf et al.
# Submitted via: ExactAudioCopyFreeDBPlugin 1.0
#
DISCID=b70eb40f
DTITLE=Blues - The Chicago Years - Blues - The Chicago Years
DYEAR=1994
DGENRE=Blues
TTITLE0=Sunnyland Slim and Lacy Gibson - I Had It So Hard
TTITLE1=Carey Bell and Buster Benton - Born With The Blues
TTITLE2=Billy Boy Arnold With Tony McPhee - I Wish You Would
TTITLE3=Muddy Waters - She's 19 Years Old
TTITLE4=Earl Hooker - The Foxtrot
TTITLE5=Fenton Robinson - You Don't Know What Love Is
TTITLE6=Big Walter "Shakey" Horton - Easy
TTITLE7=Ko Ko Taylor - Wan Dang Doodle
TTITLE8=Byther Smith - I Don't Like To Travel
TTITLE9=Buddy Guy and Junior Wells - Country Girl
TTITLE10=Jody Williams - Moanin' For Molasses
TTITLE11=Bo Diddley - Evalena
TTITLE12=Sonny Boy Williamson - All My Love In Vain
TTITLE13=Eddie Clearwater - Came Up The Hard Way
TTITLE14=Earl Hooker - Two Bugs In A Rug
EXTD=YEAR: 1994 ID3G: 0
EXTT0=Sunnyland Slim and Lacy Gibson\n
EXTT1=Carey Bell and Buster Benton\n
EXTT2=Billy Boy Arnold with Tony McPhee
EXTT3=Muddy Waters
EXTT4=Earl Hooker
EXTT5=Fenton Robinson
EXTT6=Big Walter Shakey Horton
EXTT7=Ko Ko Taylor
EXTT8=Byther Smith
EXTT9=Buddy Guy and Junior Wells
EXTT10=Jody Williams
EXTT11=Bo Diddley
EXTT12=Sonny Boy Williamson
EXTT13=Eddie Clearwater
EXTT14=Earl Hooker
PLAYORDER=
